{
    "header": {
      "PPQ": 96,
      "timeSignature": [
        4,
        4
      ],
      "bpm": 120,
      "name": ""
    },
    "startTime": 0,
    "duration": 48,
    "tracks": [
      {
        "startTime": 0,
        "duration": 48,
        "length": 44,
        "notes": [
          {
            "name": "C5",
            "midi": 72,
            "time": 0,
            "velocity": 0.7874015748031497,
            "duration": 1.5
          },
          {
            "name": "E5",
            "midi": 76,
            "time": 1.5,
            "velocity": 0.7874015748031497,
            "duration": 0.5
          },
          {
            "name": "G5",
            "midi": 79,
            "time": 2,
            "velocity": 0.7874015748031497,
            "duration": 1
          },
          {
            "name": "C6",
            "midi": 84,
            "time": 3,
            "velocity": 0.7874015748031497,
            "duration": 1
          },
          {
            "name": "A5",
            "midi": 81,
            "time": 4,
            "velocity": 0.7874015748031497,
            "duration": 1
          },
          {
            "name": "C6",
            "midi": 84,
            "time": 5,
            "velocity": 0.7874015748031497,
            "duration": 0.5
          },
          {
            "name": "A5",
            "midi": 81,
            "time": 5.5,
            "velocity": 0.7874015748031497,
            "duration": 0.5
          },
          {
            "name": "G5",
            "midi": 79,
            "time": 6,
            "velocity": 0.7874015748031497,
            "duration": 2
          },
          {
            "name": "F5",
            "midi": 77,
            "time": 8,
            "velocity": 0.7874015748031497,
            "duration": 1.5
          },
          {
            "name": "G5",
            "midi": 79,
            "time": 9.5,
            "velocity": 0.7874015748031497,
            "duration": 0.5
          },
          {
            "name": "E5",
            "midi": 76,
            "time": 10,
            "velocity": 0.7874015748031497,
            "duration": 1
          },
          {
            "name": "C5",
            "midi": 72,
            "time": 11,
            "velocity": 0.7874015748031497,
            "duration": 1
          },
          {
            "name": "D5",
            "midi": 74,
            "time": 12,
            "velocity": 0.7874015748031497,
            "duration": 2
          },
          {
            "name": "C5",
            "midi": 72,
            "time": 14,
            "velocity": 0.7874015748031497,
            "duration": 2
          },
          {
            "name": "G5",
            "midi": 79,
            "time": 16,
            "velocity": 0.7874015748031497,
            "duration": 1
          },
          {
            "name": "G5",
            "midi": 79,
            "time": 17,
            "velocity": 0.7874015748031497,
            "duration": 1
          },
          {
            "name": "F5",
            "midi": 77,
            "time": 18,
            "velocity": 0.7795275590551181,
            "duration": 1
          },
          {
            "name": "F5",
            "midi": 77,
            "time": 19,
            "velocity": 0.7795275590551181,
            "duration": 1
          },
          {
            "name": "E5",
            "midi": 76,
            "time": 20,
            "velocity": 0.7795275590551181,
            "duration": 1
          },
          {
            "name": "G5",
            "midi": 79,
            "time": 21,
            "velocity": 0.7795275590551181,
            "duration": 0.5
          },
          {
            "name": "E5",
            "midi": 76,
            "time": 21.5,
            "velocity": 0.7795275590551181,
            "duration": 0.5
          },
          {
            "name": "D5",
            "midi": 74,
            "time": 22,
            "velocity": 0.7795275590551181,
            "duration": 2
          },
          {
            "name": "G5",
            "midi": 79,
            "time": 24,
            "velocity": 0.7874015748031497,
            "duration": 1
          },
          {
            "name": "G5",
            "midi": 79,
            "time": 25,
            "velocity": 0.7874015748031497,
            "duration": 1
          },
          {
            "name": "F5",
            "midi": 77,
            "time": 26,
            "velocity": 0.7795275590551181,
            "duration": 1
          },
          {
            "name": "F5",
            "midi": 77,
            "time": 27,
            "velocity": 0.7795275590551181,
            "duration": 1
          },
          {
            "name": "E5",
            "midi": 76,
            "time": 28,
            "velocity": 0.7795275590551181,
            "duration": 1
          },
          {
            "name": "G5",
            "midi": 79,
            "time": 29,
            "velocity": 0.7795275590551181,
            "duration": 0.5
          },
          {
            "name": "E5",
            "midi": 76,
            "time": 29.5,
            "velocity": 0.7795275590551181,
            "duration": 0.5
          },
          {
            "name": "D5",
            "midi": 74,
            "time": 30,
            "velocity": 0.7795275590551181,
            "duration": 2
          },
          {
            "name": "C5",
            "midi": 72,
            "time": 32,
            "velocity": 0.7874015748031497,
            "duration": 1.5
          },
          {
            "name": "E5",
            "midi": 76,
            "time": 33.5,
            "velocity": 0.7874015748031497,
            "duration": 0.5
          },
          {
            "name": "G5",
            "midi": 79,
            "time": 34,
            "velocity": 0.7874015748031497,
            "duration": 1
          },
          {
            "name": "C6",
            "midi": 84,
            "time": 35,
            "velocity": 0.7874015748031497,
            "duration": 1
          },
          {
            "name": "A5",
            "midi": 81,
            "time": 36,
            "velocity": 0.7874015748031497,
            "duration": 1
          },
          {
            "name": "C6",
            "midi": 84,
            "time": 37,
            "velocity": 0.7874015748031497,
            "duration": 0.5
          },
          {
            "name": "A5",
            "midi": 81,
            "time": 37.5,
            "velocity": 0.7874015748031497,
            "duration": 0.5
          },
          {
            "name": "G5",
            "midi": 79,
            "time": 38,
            "velocity": 0.7874015748031497,
            "duration": 2
          },
          {
            "name": "F5",
            "midi": 77,
            "time": 40,
            "velocity": 0.7874015748031497,
            "duration": 1.5
          },
          {
            "name": "G5",
            "midi": 79,
            "time": 41.5,
            "velocity": 0.7874015748031497,
            "duration": 0.5
          },
          {
            "name": "E5",
            "midi": 76,
            "time": 42,
            "velocity": 0.7874015748031497,
            "duration": 1
          },
          {
            "name": "C5",
            "midi": 72,
            "time": 43,
            "velocity": 0.7874015748031497,
            "duration": 1
          },
          {
            "name": "D5",
            "midi": 74,
            "time": 44,
            "velocity": 0.7874015748031497,
            "duration": 2
          },
          {
            "name": "C5",
            "midi": 72,
            "time": 46,
            "velocity": 0.7874015748031497,
            "duration": 2
          }
        ],
        "controlChanges": {},
        "id": 0,
        "name": "",
        "channelNumber": 0,
        "isPercussion": false
      }
    ]
  }